<?xml version="1.0" standalone="no"?>
<!DOCTYPE svg PUBLIC "-//W3C//DTD SVG 20010904//EN"
 "http://www.w3.org/TR/2001/REC-SVG-20010904/DTD/svg10.dtd">
<svg version="1.0" xmlns="http://www.w3.org/2000/svg"
 width="618.000000pt" height="627.000000pt" viewBox="0 0 618.000000 627.000000"
 preserveAspectRatio="xMidYMid meet">

<g transform="translate(0.000000,627.000000) scale(0.100000,-0.100000)"
fill="#000000" stroke="none">
<path d="M0 6193 c1 -63 3 -74 12 -58 26 46 108 107 168 126 15 4 -14 8 -77 8
l-103 1 0 -77z"/>
<path d="M6031 6256 c53 -19 105 -53 128 -84 l20 -27 1 63 0 62 -92 0 c-88 -1
-91 -2 -57 -14z"/>
<path d="M3783 6022 c3 -4 0 -18 -5 -32 l-9 -25 -20 24 c-30 37 -35 17 -5 -22
14 -19 26 -42 25 -53 0 -11 -3 -13 -6 -6 -2 6 -13 12 -23 12 -10 0 -21 4 -25
9 -3 6 -13 10 -23 9 -9 0 -54 4 -99 8 -60 5 -83 4 -83 -5 0 -6 -7 -11 -15 -11
-9 0 -33 -16 -53 -36 -21 -20 -38 -30 -40 -24 -5 14 -62 -45 -62 -63 0 -7 -7
-25 -15 -41 -9 -16 -14 -35 -11 -42 5 -14 -30 -74 -44 -74 -5 0 -10 -7 -10
-15 0 -8 -4 -15 -9 -15 -6 0 -16 -12 -23 -27 -18 -37 -95 -82 -82 -48 6 16 -4
19 -30 9 -15 -6 -15 -7 0 -19 22 -15 10 -35 -21 -35 -31 0 -39 14 -19 31 14
12 14 14 -3 20 -15 6 -13 9 15 19 17 7 32 16 32 20 0 5 2 15 5 22 4 11 -2 14
-27 13 -41 -1 -78 -21 -78 -40 0 -8 -4 -15 -9 -15 -6 0 -11 -14 -13 -32 -3
-30 -6 -32 -91 -58 -48 -15 -94 -34 -103 -41 -31 -25 -76 -101 -79 -132 -2
-18 -1 -24 1 -14 8 28 25 9 18 -21 -4 -21 -3 -24 5 -12 8 12 11 4 11 -31 0
-34 -5 -49 -16 -53 -22 -8 -22 -8 -27 17 -3 12 -4 -4 -4 -35 0 -32 4 -58 9
-58 5 0 0 -12 -11 -26 -16 -20 -18 -31 -10 -50 12 -34 11 -39 -5 -24 -13 10
-13 7 -4 -18 10 -27 8 -38 -20 -94 -24 -48 -32 -81 -37 -143 -7 -91 -22 -163
-40 -185 -7 -8 -15 -51 -18 -95 -3 -44 -13 -107 -22 -140 -26 -92 -33 -173
-23 -250 16 -116 58 -167 58 -70 0 25 7 62 14 82 8 21 20 57 26 80 21 84 136
306 215 417 78 109 155 131 449 126 21 0 51 -7 67 -15 15 -8 43 -15 61 -15 61
0 107 -19 114 -45 3 -14 12 -25 20 -25 8 0 14 -4 14 -9 0 -5 11 -16 24 -25 23
-14 30 -14 105 10 44 14 83 29 86 35 4 5 13 9 22 9 9 0 25 8 35 17 16 14 23
15 39 5 16 -10 22 -9 39 8 29 29 73 25 114 -10 31 -28 35 -29 38 -12 2 16 7
18 26 11 15 -6 21 -13 15 -21 -4 -7 -8 -25 -9 -40 -2 -26 1 -28 35 -28 33 -1
91 -36 91 -55 0 -4 -22 -4 -50 0 -54 7 -62 -1 -30 -30 15 -13 43 -20 100 -24
75 -6 82 -9 108 -39 15 -17 32 -32 38 -32 13 0 59 -41 65 -57 2 -7 25 -34 51
-61 26 -27 45 -52 42 -55 -9 -9 16 -47 31 -47 8 0 14 -5 13 -11 -2 -6 7 -15
20 -20 16 -6 21 -5 17 2 -5 7 5 8 32 3 21 -4 52 -7 70 -7 29 1 31 -1 23 -22
-5 -13 -6 -26 -2 -30 4 -4 -6 -18 -23 -32 l-30 -25 32 6 c27 4 31 3 26 -11 -5
-13 -1 -15 20 -11 14 3 31 2 38 -2 14 -9 38 -75 39 -105 1 -18 2 -17 15 5 7
14 16 24 19 23 14 -7 18 -2 8 10 -8 9 -4 19 14 36 24 23 24 23 24 2 0 -12 -4
-21 -10 -21 -5 0 -10 -4 -10 -10 0 -5 7 -10 15 -10 24 0 39 -58 24 -90 -6 -14
-15 -59 -22 -110 -3 -25 15 -104 28 -122 8 -12 9 -36 4 -80 -38 -309 -53 -598
-30 -598 4 0 18 32 30 70 14 43 31 76 44 85 31 22 140 95 190 127 72 47 87 51
147 40 30 -5 57 -8 58 -7 2 2 6 23 8 47 5 58 39 170 74 243 16 33 40 101 54
152 14 51 30 101 35 112 6 11 11 42 11 69 0 37 7 59 26 88 23 34 74 152 74
171 0 4 -7 -2 -15 -13 -14 -19 -14 -18 -15 4 0 12 5 22 10 22 15 0 12 43 -7
86 -23 55 -33 117 -22 131 12 13 22 153 11 153 -4 0 -8 14 -8 31 -1 17 -6 34
-11 38 -13 8 -23 71 -12 71 13 0 36 -53 31 -73 -5 -22 24 -33 43 -17 19 16 19
31 0 24 -10 -4 -15 0 -15 15 0 16 6 21 26 21 25 0 26 2 21 37 -6 36 -59 103
-82 103 -7 0 -20 9 -30 20 -10 11 -26 20 -35 20 -10 0 -20 6 -23 14 -4 9 -14
12 -26 9 -14 -4 -30 5 -51 26 -18 17 -36 31 -41 31 -5 0 -18 9 -29 20 -11 11
-32 20 -47 20 -29 1 -73 30 -73 48 0 16 75 72 96 72 25 0 5 17 -24 22 -23 3
-23 4 14 51 41 52 69 60 99 27 10 -11 24 -20 32 -20 7 0 13 -9 13 -20 0 -11 6
-20 14 -20 8 0 18 -9 21 -21 10 -30 16 -17 9 18 -5 28 -32 54 -108 105 -6 4
-5 12 3 21 8 11 9 17 1 22 -19 12 0 25 36 25 19 0 34 5 34 10 0 6 -12 10 -27
10 -16 0 -35 4 -43 10 -9 5 -19 5 -27 -2 -18 -15 -43 -2 -43 22 0 11 -4 20
-10 20 -23 0 -8 29 20 39 28 9 42 31 20 31 -5 0 -9 10 -7 21 1 12 -3 24 -9 26
-6 2 -10 -7 -10 -19 1 -18 -5 -24 -26 -26 -16 -2 -28 1 -28 7 0 6 -4 11 -10
11 -5 0 -9 -6 -7 -12 1 -7 -8 -13 -20 -13 -13 0 -23 -4 -23 -8 0 -4 0 -11 0
-17 0 -6 10 -6 27 1 18 7 30 6 37 -1 16 -16 -46 -73 -81 -74 -52 -3 -85 26
-43 37 11 3 20 12 20 21 0 14 -4 14 -41 0 -36 -15 -42 -15 -56 -2 -13 14 -12
16 10 22 17 4 24 12 23 27 -1 19 5 22 54 25 30 2 68 5 83 7 29 5 48 16 29 18
-7 1 -17 2 -23 3 -5 0 -21 12 -35 25 -26 25 -36 23 -41 -11 -4 -28 -9 -32 -23
-23 -9 6 -9 10 1 16 10 6 4 9 -18 9 -18 0 -33 -4 -33 -9 0 -5 -16 -18 -35 -29
l-34 -21 -21 29 c-11 15 -20 34 -20 42 0 7 -18 28 -40 47 -22 19 -40 41 -40
48 0 7 -12 16 -27 19 -41 10 -43 12 -33 39 9 24 -2 35 -38 35 -8 0 -36 10 -60
21 l-44 22 33 14 c41 18 147 11 202 -12 41 -17 59 -19 37 -5 -13 9 -13 11 0
19 12 8 11 11 -5 17 -11 4 -39 15 -62 25 -52 23 -109 24 -185 3 -44 -13 -56
-20 -48 -29 8 -9 -10 -12 -77 -11 -49 0 -129 -3 -180 -8 l-91 -7 -7 33 c-12
64 -47 120 -85 135 -19 8 -50 21 -69 30 -18 8 -45 17 -60 18 -14 2 -66 11
-115 20 -79 15 -94 15 -146 2 -68 -17 -90 -7 -59 27 l20 21 -23 3 c-13 2 -27
7 -33 11 -15 12 -47 22 -42 13z m213 -107 c-11 -8 -36 -15 -55 -14 l-36 1 45
13 c60 17 69 17 46 0z m-486 -3 c0 -13 -12 -22 -22 -16 -10 6 -1 24 13 24 5 0
9 -4 9 -8z m130 -21 c0 -5 -25 -27 -55 -50 -30 -23 -55 -45 -55 -48 0 -4 5 -2
12 5 20 20 23 14 19 -40 -2 -32 -9 -56 -17 -61 -10 -6 -11 -13 -4 -27 12 -22
13 -57 3 -62 -5 -1 -17 -20 -27 -40 -11 -21 -25 -38 -32 -38 -7 0 -17 -12 -22
-27 l-10 -28 -1 27 c-1 16 9 38 24 54 31 33 32 49 3 33 -13 -7 -24 -10 -25 -8
-1 2 -5 1 -9 -3 -4 -5 -2 -8 4 -8 19 0 14 -15 -15 -44 -18 -18 -21 -25 -9 -20
16 6 17 4 7 -14 -26 -50 -50 -5 -26 50 13 33 13 37 -2 50 -15 11 -16 11 -10
-4 3 -10 2 -18 -4 -18 -6 0 -8 -9 -4 -19 6 -21 -5 -33 -22 -23 -6 4 -8 21 -6
39 4 24 12 34 34 42 16 5 29 17 29 26 0 9 6 15 13 12 6 -2 22 5 35 16 25 23
30 11 7 -19 -25 -33 -18 -52 10 -22 16 17 27 43 30 72 6 52 0 55 -65 35 -19
-6 -46 -12 -60 -14 l-25 -3 23 15 c12 9 22 21 22 27 1 20 85 106 109 111 12 2
28 8 35 14 10 8 38 16 74 20 6 0 12 -3 12 -8z m77 -23 c-3 -7 -5 -2 -5 12 0
14 2 19 5 13 2 -7 2 -19 0 -25z m63 -8 c0 -5 -4 -10 -10 -10 -5 0 -10 5 -10
10 0 6 5 10 10 10 6 0 10 -4 10 -10z m542 -21 c11 -11 14 -20 8 -24 -6 -3 -10
-3 -10 2 0 4 -13 14 -30 21 -16 8 -30 18 -30 24 0 14 42 -1 62 -23z m-525 -1
c-3 -8 -6 -5 -6 6 -1 11 2 17 5 13 3 -3 4 -12 1 -19z m-137 -11 c0 -25 -31
-57 -55 -57 -18 0 -18 2 -3 37 21 47 58 60 58 20z m172 -9 c-9 -9 -12 -7 -12
12 0 19 3 21 12 12 9 -9 9 -15 0 -24z m388 22 c8 -5 12 -11 9 -14 -3 -3 -14 1
-25 9 -21 16 -8 20 16 5z m-840 -39 c0 -5 -7 -11 -15 -15 -15 -5 -20 5 -8 17
9 10 23 9 23 -2z m365 -8 c6 -17 -11 -53 -25 -53 -5 0 -7 7 -4 15 5 11 -1 15
-25 15 -32 0 -39 8 -21 26 16 16 68 13 75 -3z m135 3 c0 -3 -4 -8 -10 -11 -5
-3 -10 -1 -10 4 0 6 5 11 10 11 6 0 10 -2 10 -4z m307 -22 c-3 -3 -12 -4 -19
-1 -8 3 -5 6 6 6 11 1 17 -2 13 -5z m114 -16 c4 -6 16 -8 28 -5 27 7 51 -20
25 -29 -11 -3 -30 -10 -44 -14 -63 -22 -88 -22 -99 -1 -16 29 -13 41 9 41 22
0 27 15 8 24 -7 3 5 3 27 0 22 -3 43 -11 46 -16z m-370 -22 c5 3 9 1 9 -5 0
-11 -62 -62 -69 -56 -2 3 8 14 22 25 14 12 25 26 23 33 -1 7 -1 9 1 4 3 -4 9
-5 14 -1z m-221 -15 c0 -6 -4 -13 -10 -16 -5 -3 -10 1 -10 9 0 9 5 16 10 16 6
0 10 -4 10 -9z m290 -11 c13 -8 12 -10 -4 -10 -11 0 -33 -12 -48 -27 -22 -21
-31 -24 -40 -15 -10 10 -6 18 16 37 31 27 52 31 76 15z m-570 -18 c0 -11 -47
-52 -60 -52 -14 0 -12 34 2 48 14 14 58 16 58 4z m934 0 c3 -5 -11 -16 -30
-25 -47 -23 -52 -21 -24 8 24 25 45 32 54 17z m-91 -8 c3 -3 3 -12 0 -20 -4
-11 -9 -12 -19 -3 -8 6 -11 15 -8 20 6 10 18 12 27 3z m-213 -19 c0 -8 -7 -15
-15 -15 -16 0 -20 12 -8 23 11 12 23 8 23 -8z m150 6 c0 -5 -9 -11 -21 -14
-16 -4 -18 -3 -8 9 13 16 29 19 29 5z m-319 -35 c-6 -8 -21 -16 -32 -19 -24
-6 -19 1 13 19 31 16 32 16 19 0z m49 -15 c0 -15 -29 -33 -41 -25 -9 5 -7 11
6 21 22 15 35 17 35 4z m-627 -31 c3 -11 -3 -30 -14 -44 -10 -13 -19 -28 -19
-33 0 -4 4 -1 10 7 5 8 13 11 17 6 4 -4 -1 -14 -12 -22 -19 -14 -20 -13 -23
19 -5 60 28 115 41 67z m559 -22 c-7 -7 -12 -8 -12 -2 0 14 12 26 19 19 2 -3
-1 -11 -7 -17z m-223 -14 c15 -33 4 -50 -19 -29 -10 9 -16 24 -13 36 7 26 18
24 32 -7z m561 6 c0 -7 -14 -8 -37 -4 -52 9 -54 14 -5 14 23 0 42 -5 42 -10z
m-115 -10 c-11 -5 -29 -9 -40 -9 -17 -1 -17 1 -5 9 8 5 26 9 40 9 23 0 23 -1
5 -9z m-159 -16 c-2 -15 -23 -34 -39 -34 -9 0 25 49 35 50 3 0 5 -7 4 -16z
m354 6 c0 -5 -4 -10 -9 -10 -6 0 -13 5 -16 10 -3 6 1 10 9 10 9 0 16 -4 16
-10z m-1079 -48 c-5 -2 -7 -19 -4 -38 6 -39 -4 -43 -49 -20 -16 8 -28 11 -28
6 0 -4 14 -13 30 -19 30 -10 38 -25 20 -36 -15 -9 -12 -25 5 -25 8 0 15 -4 15
-8 0 -4 -20 -9 -45 -10 -25 -1 -45 3 -45 8 0 6 5 10 11 10 7 0 5 10 -5 25 -16
25 -16 28 11 78 15 28 39 57 53 64 22 11 26 10 33 -10 5 -13 4 -23 -2 -25z
m-111 -22 c0 -5 -9 -10 -20 -10 -11 0 -20 5 -20 10 0 6 9 10 20 10 11 0 20 -4
20 -10z m-184 -19 c-9 -14 -66 -34 -74 -27 -10 11 28 36 56 36 13 0 21 -4 18
-9z m2064 -33 c0 -11 -27 -10 -34 1 -4 5 -3 17 1 27 6 16 7 16 20 -2 7 -10 13
-21 13 -26z m-1890 -3 c0 -26 -39 -43 -52 -22 -17 26 -8 44 22 45 25 1 30 -3
30 -23z m-266 -19 c-6 -16 -24 -23 -24 -8 0 10 22 33 27 28 2 -2 1 -11 -3 -20z
m2066 5 c0 -23 -16 -36 -25 -21 -9 14 1 40 15 40 5 0 10 -9 10 -19z m-1992 -5
c-10 -7 -18 -17 -18 -21 0 -4 7 -2 15 5 9 7 18 10 22 6 3 -3 15 1 25 11 17 15
18 14 17 -28 -1 -24 -3 -36 -6 -26 -2 9 -9 17 -14 17 -12 0 -11 -7 3 -48 12
-32 11 -35 -17 -58 -35 -28 -45 -30 -45 -8 0 11 -6 14 -20 9 -26 -8 -42 43
-16 57 9 5 16 19 16 31 0 16 -3 18 -9 8 -7 -11 -9 -11 -13 0 -7 18 32 57 57
58 19 0 19 0 3 -13z m2078 -33 c-4 -4 -11 -1 -16 7 -16 25 -11 35 7 17 9 -9
13 -20 9 -24z m61 1 c-9 -9 -28 6 -21 18 4 6 10 6 17 -1 6 -6 8 -13 4 -17z
m-1607 -9 c0 -8 -4 -15 -10 -15 -5 0 -10 7 -10 15 0 8 5 15 10 15 6 0 10 -7
10 -15z m-619 -22 c-8 -15 -10 -15 -11 -2 0 17 10 32 18 25 2 -3 -1 -13 -7
-23z m256 12 c8 -22 -6 -33 -17 -15 -13 20 -12 30 0 30 6 0 13 -7 17 -15z
m1943 -19 c0 -3 -4 -8 -10 -11 -5 -3 -10 -1 -10 4 0 6 5 11 10 11 6 0 10 -2
10 -4z m-555 -46 c3 -5 2 -10 -4 -10 -5 0 -13 5 -16 10 -3 6 -2 10 4 10 5 0
13 -4 16 -10z m-572 -25 c-3 -9 -8 -14 -10 -11 -3 3 -2 9 2 15 9 16 15 13 8
-4z m1284 9 c-3 -3 -12 -4 -19 -1 -8 3 -5 6 6 6 11 1 17 -2 13 -5z m-1202 -24
c-3 -5 -11 -10 -16 -10 -6 0 -7 5 -4 10 3 6 11 10 16 10 6 0 7 -4 4 -10z m520
-55 c4 -33 3 -43 -3 -30 -14 31 -23 100 -12 89 6 -6 12 -32 15 -59z m-1655 37
c0 -5 -7 -17 -15 -28 -14 -19 -14 -19 -15 2 0 11 3 24 7 27 9 10 23 9 23 -1z
m2350 0 c0 -9 -61 -34 -68 -28 -4 4 46 33 61 35 4 1 7 -3 7 -7z m55 -21 c-3
-5 -18 -12 -34 -16 -16 -3 -45 -22 -65 -41 -37 -36 -52 -33 -33 7 8 16 30 30
62 41 57 19 79 22 70 9z m75 1 c0 -4 -6 -16 -14 -27 -7 -11 -16 -46 -20 -77
-9 -70 -41 -122 -79 -126 -31 -4 -31 -3 -15 35 6 15 13 37 15 47 2 11 10 27
18 36 8 9 12 20 8 25 -5 4 -3 5 3 2 7 -4 16 -1 22 6 8 9 4 12 -12 13 -18 1
-27 -8 -41 -40 -17 -38 -60 -86 -77 -86 -16 0 -7 57 12 78 11 12 20 25 20 29
0 17 109 76 126 69 8 -3 13 -2 13 2 -2 15 1 22 11 22 6 0 10 -3 10 -8z m41
-74 c-8 -23 -31 -37 -31 -19 0 6 5 11 10 11 6 0 9 3 9 8 -3 14 1 22 11 22 5 0
6 -9 1 -22z m-196 -168 c3 -5 1 -10 -4 -10 -6 0 -11 5 -11 10 0 6 2 10 4 10 3
0 8 -4 11 -10z m155 -100 c0 -5 -11 -10 -25 -10 -14 0 -25 5 -25 10 0 6 11 10
25 10 14 0 25 -4 25 -10z m85 -30 c4 -6 -6 -10 -24 -10 -16 0 -33 5 -36 10 -4
6 6 10 24 10 16 0 33 -4 36 -10z m-45 -54 c0 -3 -4 -8 -10 -11 -5 -3 -10 -1
-10 4 0 6 5 11 10 11 6 0 10 -2 10 -4z m45 -6 c-3 -5 -14 -10 -23 -10 -15 0
-15 2 -2 10 20 13 33 13 25 0z m195 -10 c12 -8 11 -10 -7 -10 -12 0 -25 5 -28
10 -8 13 15 13 35 0z m-2904 -47 c-10 -10 -19 5 -10 18 6 11 8 11 12 0 2 -7 1
-15 -2 -18z m2754 17 c0 -5 -4 -10 -10 -10 -5 0 -10 5 -10 10 0 6 5 10 10 10
6 0 10 -4 10 -10z m-2680 -34 c0 -3 -4 -8 -10 -11 -5 -3 -10 -1 -10 4 0 6 5
11 10 11 6 0 10 -2 10 -4z m2823 -58 c9 -34 -4 -43 -24 -17 -24 31 -24 39 0
39 11 0 21 -9 24 -22z m-936 -444 c-3 -3 -12 -4 -19 -1 -8 3 -5 6 6 6 11 1 17
-2 13 -5z m993 -134 c0 -5 -4 -10 -10 -10 -5 0 -10 5 -10 10 0 6 5 10 10 10 6
0 10 -4 10 -10z m-683 -52 c-3 -8 -6 -5 -6 6 -1 11 2 17 5 13 3 -3 4 -12 1
-19z"/>
<path d="M3570 5865 c-11 -13 -10 -14 4 -9 9 3 16 10 16 15 0 13 -6 11 -20 -6z"/>
<path d="M3493 5770 c-31 -13 -29 -20 7 -20 20 0 30 5 30 15 0 17 -5 18 -37 5z"/>
<path d="M3156 5473 c-6 -14 -5 -15 5 -6 7 7 10 15 7 18 -3 3 -9 -2 -12 -12z"/>
<path d="M3140 5370 c0 -5 5 -10 10 -10 6 0 10 5 10 10 0 6 -4 10 -10 10 -5 0
-10 -4 -10 -10z"/>
<path d="M3045 5411 c-3 -5 -1 -12 4 -15 5 -3 11 1 15 9 6 16 -9 21 -19 6z"/>
<path d="M3335 5869 c-4 -6 -5 -12 -2 -15 2 -3 7 2 10 11 7 17 1 20 -8 4z"/>
<path d="M3150 5579 c0 -5 5 -7 10 -4 6 3 10 8 10 11 0 2 -4 4 -10 4 -5 0 -10
-5 -10 -11z"/>
<path d="M5360 5525 c-13 -16 -8 -18 27 -9 13 4 20 10 17 15 -8 14 -30 11 -44
-6z"/>
<path d="M5454 5365 c11 -8 29 -15 40 -15 20 0 20 0 0 15 -10 8 -28 14 -39 14
-20 0 -20 0 -1 -14z"/>
<path d="M2635 4960 c-3 -6 1 -7 9 -4 18 7 21 14 7 14 -6 0 -13 -4 -16 -10z"/>
<path d="M1630 4886 c0 -9 5 -16 10 -16 6 0 10 4 10 9 0 6 -4 13 -10 16 -5 3
-10 -1 -10 -9z"/>
<path d="M1670 4802 c0 -11 26 -32 68 -55 20 -11 32 -14 32 -7 0 15 -17 30
-57 53 -35 19 -43 21 -43 9z"/>
<path d="M195 4730 c-3 -5 -1 -10 4 -10 6 0 11 5 11 10 0 6 -2 10 -4 10 -3 0
-8 -4 -11 -10z"/>
<path d="M2720 3956 c-6 -6 -10 -6 -10 -2 0 5 -7 3 -15 -4 -8 -7 -15 -8 -15
-3 0 5 -13 8 -30 5 -28 -4 -43 -22 -18 -22 6 0 3 -9 -7 -20 -10 -11 -24 -20
-30 -20 -13 0 -27 -45 -17 -55 3 -3 11 3 18 13 29 42 206 49 251 10 10 -8 41
-25 68 -38 28 -12 53 -27 56 -32 3 -5 37 -10 75 -11 69 -2 69 -2 72 26 4 34
-22 77 -46 77 -10 0 -45 14 -77 30 -41 21 -71 30 -101 28 -24 0 -50 5 -59 12
-19 16 -101 20 -115 6z"/>
<path d="M3946 3875 c-8 -8 -22 -12 -30 -9 -9 3 -16 1 -16 -5 0 -7 -17 -10
-45 -9 -25 2 -45 8 -45 13 0 9 -54 12 -140 6 -48 -2 -77 -30 -84 -77 -3 -21
-3 -31 0 -21 3 9 10 15 15 11 5 -3 7 -10 4 -15 -8 -12 43 -32 78 -30 15 1 27
-3 27 -9 0 -5 7 -10 15 -10 8 0 15 5 15 11 0 6 7 8 16 5 8 -3 12 -2 9 4 -3 6
2 10 12 10 21 0 138 36 165 50 14 8 44 7 159 -4 14 -2 31 -6 38 -10 11 -7 79
-18 114 -17 10 0 17 -8 17 -18 0 -10 10 -22 23 -28 68 -31 99 -42 133 -48 l39
-7 -40 36 c-22 20 -46 36 -53 36 -7 0 -11 4 -7 10 3 5 -7 17 -22 27 -15 10
-30 20 -33 24 -3 4 -30 9 -60 13 -30 4 -57 11 -60 15 -3 5 -31 12 -62 16 -34
4 -59 13 -62 21 -3 8 -16 14 -28 14 -19 0 -20 -2 -8 -10 12 -8 10 -10 -8 -10
-13 0 -21 4 -18 9 3 5 -1 12 -10 15 -23 9 -31 8 -48 -9z"/>
<path d="M1060 3862 c0 -12 19 -26 26 -19 2 2 -2 10 -11 17 -9 8 -15 8 -15 2z"/>
<path d="M1288 3833 c7 -3 16 -2 19 1 4 3 -2 6 -13 5 -11 0 -14 -3 -6 -6z"/>
<path d="M1090 3826 c0 -2 9 -6 20 -9 11 -3 20 -1 20 4 0 5 -9 9 -20 9 -11 0
-20 -2 -20 -4z"/>
<path d="M3556 3805 c-3 -8 -1 -15 4 -15 6 0 10 7 10 15 0 8 -2 15 -4 15 -2 0
-6 -7 -10 -15z"/>
<path d="M2990 3683 c30 -13 57 -28 60 -33 6 -10 72 -50 83 -50 15 0 6 19 -22
48 -20 20 -51 34 -95 46 -87 21 -92 19 -26 -11z"/>
<path d="M2656 3664 c-23 -23 -20 -30 4 -9 11 10 20 20 20 22 0 7 -9 2 -24
-13z"/>
<path d="M401 3652 c0 -7 -5 -11 -10 -8 -5 3 -14 -1 -21 -9 -7 -8 -9 -15 -4
-15 5 0 2 -5 -6 -10 -13 -9 -13 -10 0 -11 8 -1 18 -1 23 0 4 0 7 -4 7 -10 0
-7 -12 -8 -32 -4 -35 8 -33 -1 4 -19 27 -14 37 -46 14 -46 -19 0 -21 17 -4 22
9 3 9 6 0 12 -7 4 -12 2 -12 -3 0 -6 -12 -11 -27 -10 -24 0 -25 2 -9 8 14 5
16 10 8 15 -15 9 -59 -23 -65 -46 -6 -22 6 -23 27 -3 8 8 21 15 29 15 18 0 30
-27 17 -35 -6 -4 -10 -13 -10 -21 0 -9 -10 -24 -22 -34 -13 -10 -19 -22 -14
-27 5 -4 11 -2 13 5 3 6 11 12 19 12 8 0 14 5 14 10 0 6 8 10 17 10 10 0 27
10 38 23 11 12 33 32 48 44 26 20 31 21 69 7 22 -8 47 -14 54 -14 44 0 -24 65
-77 74 -29 5 -38 11 -41 28 -2 12 -9 23 -17 26 -8 3 -11 0 -7 -7 4 -6 3 -11
-3 -11 -5 0 -12 10 -14 23 -2 12 -5 16 -6 9z"/>
<path d="M2748 3635 c-70 -28 -107 -55 -108 -77 0 -13 8 -18 29 -18 16 0 32
-6 34 -12 3 -7 6 1 6 18 1 48 20 64 82 71 37 4 59 2 63 -6 4 -6 0 -14 -8 -17
-27 -10 -19 -56 14 -88 25 -23 37 -27 63 -23 75 12 102 23 112 45 17 39 74 17
59 -23 -7 -17 -6 -17 19 0 30 19 32 27 17 56 -15 26 -62 49 -150 70 -119 30
-167 31 -232 4z"/>
<path d="M3730 3601 c-33 -12 -46 -22 -48 -39 -3 -23 -3 -23 34 -7 21 8 43 20
50 26 8 6 33 17 56 24 l43 14 -45 -1 c-25 0 -65 -8 -90 -17z"/>
<path d="M3849 3536 c-3 -3 -40 -11 -83 -17 -76 -11 -106 -27 -106 -55 0 -16
31 -19 46 -4 13 13 74 -9 74 -27 0 -6 5 -15 10 -18 7 -4 10 7 8 29 -3 49 15
63 90 72 l62 7 0 -34 c0 -35 30 -94 59 -116 37 -28 150 -7 164 32 11 26 37 17
44 -15 6 -30 6 -31 52 -24 55 8 51 5 45 30 -8 30 -126 104 -192 120 -61 15
-263 30 -273 20z"/>
<path d="M4241 3515 c14 -8 36 -30 50 -49 20 -30 56 -56 76 -56 8 0 -27 52
-51 75 -11 11 -36 26 -56 32 -45 16 -51 16 -19 -2z"/>
<path d="M590 3500 c0 -5 7 -10 15 -10 8 0 15 5 15 10 0 6 -7 10 -15 10 -8 0
-15 -4 -15 -10z"/>
<path d="M2680 3500 c0 -5 5 -10 11 -10 5 0 7 5 4 10 -3 6 -8 10 -11 10 -2 0
-4 -4 -4 -10z"/>
<path d="M2462 3449 c2 -7 10 -15 17 -17 8 -3 12 1 9 9 -2 7 -10 15 -17 17 -8
3 -12 -1 -9 -9z"/>
<path d="M270 3365 c-7 -9 -8 -15 -2 -15 5 0 12 7 16 15 3 8 4 15 2 15 -2 0
-9 -7 -16 -15z"/>
<path d="M206 3305 c-3 -8 -1 -15 4 -15 13 0 22 18 11 24 -5 3 -11 -1 -15 -9z"/>
<path d="M61 3141 c-7 -5 -12 -14 -10 -20 3 -7 11 -3 21 9 18 21 13 26 -11 11z"/>
<path d="M5272 3138 c-16 -16 -15 -28 1 -28 8 0 24 -11 37 -25 13 -14 34 -25
46 -25 13 0 30 -10 38 -22 9 -12 18 -19 22 -15 13 13 -8 61 -41 94 -35 35 -80
44 -103 21z"/>
<path d="M2876 3036 c-15 -24 -14 -26 14 -49 36 -31 82 -42 109 -27 27 14 26
24 -6 66 -36 44 -91 49 -117 10z"/>
<path d="M3213 3030 c-76 -34 -61 -45 134 -101 43 -12 73 -8 73 11 0 17 -60
68 -107 90 -52 24 -48 24 -100 0z"/>
<path d="M5106 2962 c-3 -6 -1 -14 5 -17 15 -10 25 3 12 16 -7 7 -13 7 -17 1z"/>
<path d="M3364 2845 c32 -24 102 -30 132 -10 33 21 24 31 -15 16 -21 -9 -39
-10 -67 -2 -56 16 -74 14 -50 -4z"/>
<path d="M2722 2474 c4 -23 64 -64 93 -64 12 0 44 10 71 21 57 26 102 27 164
7 27 -9 83 -16 139 -16 92 0 95 -1 196 -51 103 -51 137 -58 205 -45 20 5 36
16 43 32 10 21 8 27 -11 42 -18 15 -29 16 -64 8 -34 -7 -53 -5 -102 12 -34 12
-72 28 -87 35 -15 8 -49 13 -85 11 -32 -1 -73 1 -91 6 -17 5 -49 4 -72 -1 -22
-5 -42 -6 -45 -3 -13 12 -224 18 -277 7 -23 -4 -45 -2 -59 5 -19 10 -21 9 -18
-6z"/>
<path d="M3080 2240 c0 -5 -20 -7 -46 -5 -29 3 -43 1 -39 -6 4 -5 1 -16 -5
-24 -12 -15 -10 -16 58 -40 6 -2 12 -11 12 -18 0 -8 7 -20 15 -27 35 -29 105
44 82 85 -20 37 -77 63 -77 35z"/>
<path d="M4430 1900 c0 -5 5 -10 10 -10 6 0 10 5 10 10 0 6 -4 10 -10 10 -5 0
-10 -4 -10 -10z"/>
<path d="M4496 1903 c-11 -11 -6 -23 9 -23 8 0 15 4 15 9 0 13 -16 22 -24 14z"/>
<path d="M4476 1825 c-28 -33 -66 -47 -66 -25 0 6 -12 10 -26 10 -19 0 -25 -4
-20 -15 3 -9 0 -15 -10 -15 -8 0 -13 4 -10 9 3 5 -1 14 -9 21 -12 10 -15 10
-15 -3 0 -10 -14 -18 -40 -22 -40 -7 -64 -25 -42 -33 7 -2 12 -8 12 -14 0 -7
-4 -7 -12 0 -16 12 -168 13 -168 1 0 -5 -18 -9 -40 -9 -22 0 -48 -4 -58 -9
-23 -12 -199 -34 -211 -27 -5 4 -15 0 -23 -7 -22 -22 -50 -34 -98 -41 -24 -4
-50 -12 -57 -18 -7 -6 -13 -7 -13 -3 0 4 -7 2 -16 -6 -9 -7 -18 -9 -22 -3 -10
14 -105 15 -115 1 -6 -8 -10 -9 -13 -1 -5 12 -51 7 -59 -6 -2 -4 -22 -4 -44 0
-24 4 -44 3 -50 -3 -6 -6 -48 -10 -93 -9 -106 1 -127 4 -137 21 -5 7 -14 10
-20 7 -6 -4 -11 -3 -11 2 0 5 -14 6 -32 4 -46 -7 -168 37 -168 60 0 13 -8 18
-30 18 -16 0 -30 -2 -30 -5 0 -8 102 -106 210 -202 14 -12 30 -28 37 -35 13
-14 29 -26 55 -43 32 -21 111 -81 160 -123 36 -31 53 -40 58 -32 5 8 13 9 21
4 8 -5 22 -7 32 -6 9 2 17 -2 17 -9 0 -10 3 -10 12 -1 12 12 48 17 48 6 0 -3
-5 -14 -10 -25 -10 -17 -7 -19 30 -19 25 0 40 5 40 13 0 8 3 8 9 -2 6 -9 16
-11 27 -6 18 7 18 7 0 14 -26 10 -3 25 24 16 12 -4 20 -2 20 5 0 6 4 9 9 6 13
-8 96 9 94 20 -1 5 17 8 40 7 23 -1 44 3 48 9 4 6 28 10 53 10 25 -1 46 3 46
9 0 5 11 7 26 3 14 -4 35 -2 47 4 12 5 41 18 65 27 23 10 42 23 42 29 0 13 46
36 72 36 10 0 23 9 30 21 7 11 34 29 60 41 26 11 46 23 45 27 -5 15 52 69 91
86 23 11 42 22 42 27 0 4 7 8 15 8 8 0 15 6 15 13 0 6 29 42 65 79 38 38 65
75 65 87 0 12 4 21 9 21 5 0 11 7 15 15 9 26 -8 17 -38 -20z m-181 -65 c3 -5
1 -10 -4 -10 -6 0 -11 5 -11 10 0 6 2 10 4 10 3 0 8 -4 11 -10z m-1025 -441
c0 -6 -4 -7 -10 -4 -5 3 -10 11 -10 16 0 6 5 7 10 4 6 -3 10 -11 10 -16z"/>
<path d="M4400 1840 c0 -6 7 -10 15 -10 8 0 15 2 15 4 0 2 -7 6 -15 10 -8 3
-15 1 -15 -4z"/>
<path d="M1290 1500 c0 -5 7 -10 16 -10 8 0 12 5 9 10 -3 6 -10 10 -16 10 -5
0 -9 -4 -9 -10z"/>
<path d="M2603 1491 c-24 -4 -53 -17 -65 -28 -13 -11 -38 -28 -55 -37 -49 -24
-93 -106 -59 -106 24 0 19 -15 -17 -53 -26 -28 -38 -34 -59 -30 -23 4 -26 2
-21 -16 4 -16 2 -20 -9 -16 -10 4 -18 -6 -26 -32 -6 -21 -16 -55 -22 -75 -7
-21 -16 -38 -21 -38 -5 0 -7 -11 -3 -25 4 -15 2 -25 -5 -25 -6 0 -11 5 -11 10
0 6 -3 10 -7 10 -5 0 -9 -19 -11 -42 -1 -23 -8 -48 -14 -55 -7 -9 -7 -13 1
-13 6 0 11 -4 11 -9 0 -6 -12 -3 -27 5 -16 7 -32 14 -36 14 -13 0 4 -44 19
-53 10 -6 14 -27 13 -73 -1 -35 -5 -64 -9 -64 -13 0 -30 26 -36 58 -3 16 -14
32 -23 35 -13 3 -16 -4 -16 -42 0 -25 4 -52 8 -59 5 -6 9 -30 9 -52 0 -22 3
-40 7 -40 4 0 13 -16 20 -35 19 -53 -13 -155 -41 -127 -7 7 -20 12 -31 12 -11
0 -17 5 -14 13 2 6 10 11 16 9 7 -1 10 2 6 8 -3 5 -15 10 -26 10 -23 0 -24 13
-3 34 14 15 14 16 0 16 -9 0 -16 -4 -16 -9 0 -5 -9 -13 -20 -16 -11 -4 -18
-10 -15 -15 3 -5 -1 -11 -7 -13 -7 -3 -4 -6 7 -6 17 -1 17 -3 5 -11 -8 -5 -11
-10 -6 -10 5 0 2 -7 -5 -17 -11 -12 -11 -17 -2 -20 10 -4 9 -9 -3 -20 -8 -9
-13 -21 -10 -28 2 -7 -3 -15 -12 -18 -9 -3 -25 -8 -34 -12 -13 -5 -18 -2 -18
9 0 9 -4 16 -10 16 -15 0 -12 -21 7 -42 16 -18 15 -19 -5 -34 -12 -8 -22 -26
-22 -40 0 -19 -5 -24 -25 -24 -24 0 -26 -3 -23 -40 1 -22 5 -40 9 -40 4 0 4
-14 -1 -31 -5 -18 -7 -36 -3 -42 8 -14 -16 1 -45 26 -12 12 -31 22 -43 24 -17
3 -18 0 -9 -17 6 -11 15 -20 21 -20 6 0 25 -10 42 -23 18 -13 48 -24 67 -26
41 -3 47 -8 33 -22 -15 -15 -70 -4 -113 23 -19 12 -41 23 -49 24 -8 2 -27 17
-42 34 -23 25 -28 37 -23 58 4 15 13 31 21 35 7 4 13 16 13 25 0 19 37 104 49
112 4 3 20 30 35 60 15 30 39 78 53 105 43 85 117 194 130 190 17 -6 24 7 12
22 -9 10 -5 21 15 47 14 19 26 38 26 43 0 4 9 14 20 21 11 7 20 20 20 29 0 9
12 36 26 60 21 36 28 42 40 32 8 -6 17 -9 21 -6 3 4 -2 9 -11 13 -24 9 -20 38
14 87 17 25 30 51 30 58 0 8 9 25 20 39 11 14 20 30 20 37 0 6 11 25 25 41 14
17 25 36 25 43 0 7 7 21 17 31 22 25 14 29 -30 16 -27 -8 -47 -8 -73 0 -19 6
-68 10 -107 8 -65 -2 -78 -6 -137 -42 -36 -23 -90 -53 -120 -68 -30 -14 -75
-40 -100 -56 -25 -16 -64 -40 -87 -52 -24 -12 -43 -28 -43 -36 0 -9 -7 -11
-20 -7 -12 4 -20 2 -20 -5 0 -16 -43 -29 -57 -18 -10 8 -13 4 -13 -13 l0 -24
-19 24 c-17 23 -19 23 -44 6 -26 -17 -27 -17 -27 1 0 16 -2 17 -10 4 -6 -10
-10 -11 -10 -3 0 7 -10 12 -22 10 -18 -2 -22 2 -20 20 2 12 -2 24 -8 28 -5 3
-10 -1 -10 -9 0 -9 -4 -16 -8 -16 -5 0 -9 14 -9 30 0 18 6 30 14 30 18 0 17
19 -2 26 -9 4 -15 19 -15 41 0 31 -2 33 -15 19 -8 -8 -15 -21 -15 -29 0 -8 -9
-24 -20 -37 -24 -28 -25 -31 -5 -24 8 4 15 1 15 -5 0 -6 -11 -11 -25 -11 -14
0 -25 -4 -25 -10 0 -5 7 -7 15 -4 10 4 15 0 15 -14 0 -18 -3 -19 -25 -9 -14 7
-25 20 -25 30 0 9 -6 17 -14 17 -10 0 -12 8 -7 33 5 22 13 32 24 31 22 -2 22
12 1 20 -11 4 -14 13 -10 31 4 14 2 25 -4 25 -5 0 -10 -8 -10 -17 0 -10 -12
-52 -25 -93 -14 -41 -25 -86 -25 -100 0 -15 -3 -30 -7 -34 -18 -18 -29 -102
-25 -202 5 -168 6 -174 20 -174 9 0 10 -5 4 -17 -11 -21 -24 -135 -25 -213 0
-38 -5 -59 -16 -67 -11 -8 -12 -12 -3 -13 19 0 15 -24 -15 -87 -41 -88 -72
-135 -85 -127 -8 5 -9 1 -5 -11 5 -11 -1 -31 -13 -52 -11 -19 -20 -40 -20 -48
0 -7 -6 -16 -12 -18 -7 -3 394 -6 891 -6 805 -1 902 1 891 14 -10 12 -16 13
-26 4 -11 -9 -14 -8 -14 1 0 9 -3 10 -14 1 -9 -8 -56 -11 -142 -9 -127 3 -128
3 -135 28 -4 14 -7 18 -8 10 -1 -12 -4 -12 -17 2 -16 15 -15 18 12 42 35 31
42 31 68 8 12 -10 40 -24 63 -32 25 -7 45 -21 48 -32 4 -10 10 -18 15 -18 13
0 0 37 -21 56 -10 9 -19 30 -19 46 0 21 -7 32 -25 40 -18 8 -25 19 -25 38 0
15 -7 33 -15 40 -8 7 -18 29 -21 50 -5 31 -10 37 -25 33 -24 -7 -23 -58 1 -88
9 -11 28 -37 43 -57 l28 -38 -33 20 c-19 11 -42 28 -53 38 -18 16 -50 34 -67
36 -12 2 -21 16 -10 16 7 0 12 15 12 34 0 28 4 35 22 38 12 2 24 10 26 18 5
13 3 13 -11 1 -15 -11 -17 -11 -17 2 0 11 7 14 24 11 20 -3 23 -1 18 21 -2 14
-9 25 -14 25 -6 0 -8 9 -5 20 3 13 -1 24 -14 30 -23 13 -25 30 -4 30 18 0 19
11 3 30 -7 8 -9 12 -4 8 15 -12 34 17 41 64 4 24 10 51 15 58 10 16 30 4 30
-19 0 -10 7 -24 15 -31 12 -10 16 -9 21 6 26 72 34 84 56 84 20 0 25 8 35 48
8 35 8 49 -1 54 -8 6 -8 8 1 8 6 0 12 8 12 18 0 9 2 37 5 62 3 25 6 81 6 125
1 44 7 98 13 120 6 22 11 44 11 49 2 16 26 18 26 3 0 -9 8 -18 18 -20 16 -4
16 -5 0 -6 -10 0 -18 -6 -18 -12 0 -5 5 -7 10 -4 13 8 13 -8 0 -21 -14 -14 0
-84 16 -84 20 0 17 -9 -8 -31 -13 -10 -17 -18 -10 -19 6 0 12 5 12 10 0 6 10
8 24 4 23 -5 24 -3 24 48 -1 29 3 61 7 70 5 13 1 20 -16 27 l-24 10 25 1 c18
0 21 3 11 9 -9 6 -10 10 -1 13 17 5 20 148 3 148 -26 0 -12 17 55 65 37 27 68
49 69 49 1 1 4 13 8 28 6 24 4 27 -32 37 -41 12 -134 12 -200 2z m2 -121 c3
-6 -4 -10 -17 -10 -18 0 -20 2 -8 10 19 12 18 12 25 0z m-71 -35 c-9 -14 -21
-25 -28 -24 -7 0 -6 2 2 6 6 2 12 11 12 18 0 11 9 19 28 24 1 1 -5 -10 -14
-24z m-74 -65 c-11 -11 -20 -24 -20 -30 0 -5 -4 -10 -10 -10 -18 0 -10 29 12
44 32 22 42 20 18 -4z m-54 -87 c-5 -39 -52 -166 -83 -228 -32 -62 -63 -210
-67 -315 -2 -36 -8 -92 -13 -125 -6 -33 -11 -73 -12 -89 -1 -16 -8 -40 -17
-54 -15 -23 -15 -23 8 -20 13 2 22 9 21 16 -2 6 1 12 5 12 4 0 6 16 4 35 -2
20 4 69 13 110 10 43 15 87 11 106 -4 23 -1 38 11 51 9 11 18 40 20 71 5 73 5
77 15 77 4 0 8 3 7 8 -4 26 28 70 32 45 7 -36 6 -79 -2 -84 -6 -3 -11 -29 -12
-57 -1 -29 -5 -52 -9 -52 -5 0 -8 -7 -8 -15 0 -8 -3 -15 -7 -15 -5 0 -14 -4
-22 -9 -11 -7 -10 -13 3 -34 16 -23 16 -30 -4 -105 -11 -44 -20 -92 -20 -106
0 -27 15 -36 23 -13 2 6 7 9 11 6 12 -11 -6 -39 -24 -39 -11 0 -22 -4 -25 -10
-3 -5 -19 -10 -34 -10 -26 0 -29 -4 -35 -44 -7 -44 -25 -72 -61 -92 -14 -8
-19 -20 -17 -39 3 -25 1 -27 -22 -21 -21 5 -25 2 -28 -21 l-3 -28 -100 0 c-55
0 -103 1 -107 3 -14 6 24 66 68 111 32 31 47 56 55 90 6 25 17 59 26 74 8 15
12 35 9 43 -3 8 -7 18 -8 22 -4 10 55 10 69 0 12 -10 15 -68 3 -68 -4 0 -7 -7
-7 -15 0 -8 4 -15 9 -15 4 0 8 -7 8 -15 0 -8 -8 -15 -17 -15 -13 0 -15 -2 -5
-8 15 -10 6 -41 -17 -59 -11 -8 -12 -12 -3 -13 6 0 21 9 32 20 28 28 33 25 15
-10 -20 -39 -20 -41 15 -24 24 13 30 22 30 49 0 19 4 36 9 40 5 3 7 21 4 40
-4 23 -2 35 6 35 6 0 11 8 11 19 0 11 9 21 23 25 21 6 21 7 5 20 -13 9 -18 27
-18 58 0 24 -5 49 -12 56 -9 9 -9 15 0 24 9 9 12 8 12 -6 0 -16 3 -15 19 6 20
25 19 59 -1 85 -7 8 -5 18 4 27 29 33 33 43 35 83 1 23 8 52 15 65 7 13 13 28
14 33 0 6 4 21 8 34 5 15 4 26 -4 31 -14 8 -5 70 14 96 19 26 27 2 10 -30 -7
-16 -14 -35 -14 -43 0 -28 26 4 40 49 7 24 22 51 33 60 11 11 17 25 13 34 -3
8 1 23 10 31 9 10 13 25 10 39 -5 19 -1 26 21 33 2 1 1 -11 -1 -26z m-60 -15
c-3 -13 -5 -25 -6 -28 0 -3 -5 3 -11 13 -10 18 -5 37 12 37 5 0 7 -10 5 -22z
m-30 -75 c-10 -10 -19 5 -10 18 6 11 8 11 12 0 2 -7 1 -15 -2 -18z m-1165 -16
c-8 -8 -11 -7 -11 4 0 20 13 34 18 19 3 -7 -1 -17 -7 -23z m1519 -2 c0 -8 -2
-15 -4 -15 -2 0 -6 7 -10 15 -3 8 -1 15 4 15 6 0 10 -7 10 -15z m-1458 -18
c-2 -10 -10 -16 -18 -13 -18 7 -49 -43 -35 -57 8 -8 11 -8 11 1 0 7 7 12 15
12 12 0 13 -5 7 -17 -5 -10 -7 -23 -5 -30 3 -7 -4 -9 -19 -5 -20 5 -21 3 -10
-10 10 -13 10 -17 -1 -21 -8 -3 -17 -22 -21 -41 -9 -45 -27 -48 -19 -3 3 17 6
49 6 69 1 20 3 35 6 33 4 -2 7 9 8 25 1 15 12 39 25 53 26 30 58 33 50 4z
m102 -17 c17 -6 26 -6 26 0 0 6 5 10 10 10 18 0 10 -29 -11 -40 -16 -9 -25 -8
-40 6 -17 16 -25 34 -15 34 3 0 16 -4 30 -10z m120 -36 c3 -8 2 -12 -4 -9 -6
3 -10 10 -10 16 0 14 7 11 14 -7z m-34 -29 c0 -18 -5 -25 -20 -25 -11 0 -20 5
-20 10 0 15 -47 12 -64 -5 -19 -19 -32 -20 -16 0 6 8 9 18 6 23 -9 15 75 6 85
-9 7 -11 10 -9 15 9 8 29 14 28 14 -3z m95 15 c3 -5 -1 -10 -10 -10 -9 0 -13
5 -10 10 3 6 8 10 10 10 2 0 7 -4 10 -10z m-278 -22 c-3 -8 -6 -5 -6 6 -1 11
2 17 5 13 3 -3 4 -12 1 -19z m225 -10 c-7 -7 -12 -8 -12 -2 0 14 12 26 19 19
2 -3 -1 -11 -7 -17z m-66 -65 c-11 -11 -17 4 -9 23 7 18 8 18 11 1 2 -10 1
-21 -2 -24z m-236 -67 c0 -2 -7 -6 -15 -10 -8 -3 -15 -1 -15 4 0 6 7 10 15 10
8 0 15 -2 15 -4z m1020 -361 c0 -8 -4 -15 -10 -15 -5 0 -7 7 -4 15 4 8 8 15
10 15 2 0 4 -7 4 -15z m-35 -154 c3 -5 1 -12 -5 -16 -5 -3 -10 1 -10 9 0 18 6
21 15 7z m164 -141 c5 0 12 8 14 18 4 13 5 13 6 -4 0 -12 -6 -27 -14 -34 -8
-7 -15 -9 -15 -4 0 4 -5 3 -12 -4 -9 -9 -16 -8 -30 5 -24 22 -23 38 5 50 18 8
23 7 29 -8 4 -11 12 -19 17 -19z m56 20 c3 -6 -1 -7 -9 -4 -18 7 -21 14 -7 14
6 0 13 -4 16 -10z m-164 -22 c3 -5 3 -24 0 -41 -5 -24 -12 -32 -29 -32 -12 0
-22 3 -22 8 0 4 0 25 0 46 0 36 2 39 23 33 12 -3 25 -9 28 -14z"/>
<path d="M1330 1484 c0 -3 11 -20 25 -38 14 -18 25 -39 25 -47 0 -20 39 -91
59 -106 9 -7 43 -13 76 -13 108 0 163 -11 168 -31 3 -10 -2 -24 -10 -30 -11
-10 -11 -14 -1 -20 8 -5 18 3 30 22 12 19 25 28 40 27 13 -1 39 6 58 14 19 9
44 19 55 22 11 2 -7 2 -41 -1 -41 -3 -69 -1 -85 8 -13 7 -28 14 -34 15 -5 0
-12 2 -15 3 -6 3 -52 9 -105 15 -99 10 -129 24 -165 79 -19 28 -42 59 -50 69
-14 17 -30 24 -30 12z"/>
<path d="M1290 1294 c0 -14 4 -23 9 -19 11 6 10 45 -1 45 -4 0 -8 -12 -8 -26z"/>
<path d="M900 1291 c0 -5 7 -15 17 -22 15 -13 15 -12 4 9 -12 23 -21 28 -21
13z"/>
<path d="M3840 1290 c0 -5 5 -10 10 -10 6 0 10 5 10 10 0 6 -4 10 -10 10 -5 0
-10 -4 -10 -10z"/>
<path d="M1565 1260 c21 -9 8 -14 -27 -11 -9 1 -20 -4 -24 -11 -4 -7 -4 -10 0
-6 8 7 46 -21 46 -34 0 -4 -12 -1 -27 7 -15 8 -30 12 -35 9 -17 -11 -7 -41 17
-52 34 -15 36 -15 28 4 -5 13 -2 15 15 9 19 -6 22 -3 22 25 0 26 3 30 19 25
15 -5 18 -2 14 14 -3 10 -15 22 -26 25 -32 8 -45 6 -22 -4z m-45 -70 c0 -5 -5
-10 -11 -10 -5 0 -7 5 -4 10 3 6 8 10 11 10 2 0 4 -4 4 -10z"/>
<path d="M2350 1259 c0 -5 5 -7 10 -4 6 3 10 8 10 11 0 2 -4 4 -10 4 -5 0 -10
-5 -10 -11z"/>
<path d="M1637 1254 c-9 -10 2 -24 19 -24 8 0 14 7 14 15 0 15 -21 21 -33 9z"/>
<path d="M1480 1234 c0 -8 5 -12 10 -9 6 4 8 11 5 16 -9 14 -15 11 -15 -7z"/>
<path d="M1430 1225 c0 -2 7 -8 15 -15 12 -10 15 -10 15 2 0 8 -7 15 -15 15
-8 0 -15 -1 -15 -2z"/>
<path d="M1631 1194 c0 -11 3 -14 6 -6 3 7 2 16 -1 19 -3 4 -6 -2 -5 -13z"/>
<path d="M1605 1160 c3 -5 8 -10 11 -10 2 0 4 5 4 10 0 6 -5 10 -11 10 -5 0
-7 -4 -4 -10z"/>
<path d="M1460 1156 c0 -2 7 -9 15 -16 13 -11 14 -10 9 4 -5 14 -24 23 -24 12z"/>
<path d="M1363 1106 c-16 -19 -4 -29 13 -11 8 7 14 16 14 19 0 10 -15 6 -27
-8z"/>
<path d="M2150 950 c0 -5 5 -10 11 -10 5 0 7 5 4 10 -3 6 -8 10 -11 10 -2 0
-4 -4 -4 -10z"/>
<path d="M4685 898 c4 -13 19 -43 33 -68 14 -25 34 -62 45 -82 10 -21 25 -38
33 -38 8 0 14 -9 14 -20 0 -11 -6 -20 -14 -20 -16 0 -31 -40 -41 -107 -8 -50
-106 -185 -202 -277 -18 -17 -33 -35 -33 -40 0 -5 -13 -22 -30 -37 -16 -16
-28 -29 -26 -29 2 0 -25 -30 -60 -67 -35 -37 -64 -73 -64 -80 0 -6 -8 -17 -17
-22 -12 -7 215 -10 722 -9 407 1 719 4 692 7 -26 3 -47 9 -47 14 1 38 0 39
-32 31 -28 -6 -31 -5 -20 8 10 13 7 16 -19 22 -18 3 -38 14 -45 24 -17 22 -18
38 -1 24 6 -5 43 -9 80 -7 37 1 70 -2 73 -7 3 -4 15 -13 27 -19 22 -12 22 -11
-1 13 -15 17 -43 30 -82 38 -42 9 -57 16 -53 26 3 8 0 14 -6 14 -6 0 -11 -4
-11 -10 0 -15 -36 -12 -49 3 -6 8 -27 14 -46 15 -50 2 -74 18 -92 60 -8 20
-24 50 -35 65 -11 16 -18 31 -15 34 6 6 174 -78 217 -108 14 -9 43 -20 65 -24
l40 -6 -45 24 c-25 13 -72 40 -105 60 -33 20 -89 51 -125 69 -36 17 -76 39
-90 49 -14 9 -56 33 -95 54 -78 42 -105 63 -105 80 0 6 -13 24 -29 39 l-28 27
-7 -63 c-4 -35 -11 -76 -16 -93 -5 -16 -14 -57 -20 -90 -17 -87 -30 -111 -23
-42 5 54 4 58 -13 55 -26 -4 -42 -21 -59 -60 -8 -18 -14 -28 -15 -22 0 7 -9
14 -20 17 -11 3 -23 12 -26 21 -7 17 16 77 27 70 4 -2 10 0 14 6 3 5 14 10 24
10 10 0 24 6 30 14 9 11 7 15 -13 20 -28 7 -56 -1 -56 -17 0 -6 -3 -8 -6 -4
-9 8 19 67 31 67 5 0 3 5 -5 10 -11 7 -11 10 -2 10 7 0 10 5 6 11 -3 6 0 15 7
20 12 8 11 12 -3 23 -26 20 -22 25 22 28 l40 3 -30 32 c-20 21 -30 42 -30 62
0 16 -5 33 -10 36 -8 5 -7 11 1 21 16 20 -6 44 -41 44 -27 0 -80 39 -80 60 0
5 -11 10 -24 10 -13 0 -35 9 -49 20 -33 26 -40 25 -32 -2z m127 -280 c-12 -12
-35 -1 -27 12 3 5 13 6 21 3 10 -4 12 -9 6 -15z m78 -18 c0 -5 -2 -10 -4 -10
-3 0 -8 5 -11 10 -3 6 -1 10 4 10 6 0 11 -4 11 -10z m-100 -55 c0 -19 -4 -35
-10 -35 -11 0 -14 53 -3 63 11 12 13 8 13 -28z m93 18 c2 -5 -2 -23 -10 -42
-11 -27 -17 -31 -24 -20 -5 8 -9 11 -9 7 0 -3 -3 -14 -6 -22 -5 -12 -2 -15 10
-10 10 4 16 1 16 -8 0 -10 -12 -15 -35 -16 -30 -1 -35 2 -35 21 0 28 17 47 42
47 15 0 17 5 12 25 -5 21 -3 25 14 25 12 0 23 -3 25 -7z m-109 -79 c3 -8 2
-12 -4 -9 -6 3 -10 10 -10 16 0 14 7 11 14 -7z m-54 -44 c-7 -17 -10 -33 -7
-37 3 -3 0 -12 -8 -20 -8 -8 -15 -23 -15 -34 0 -11 -7 -27 -15 -36 -31 -30
-14 -48 45 -48 54 0 55 -1 56 -29 1 -30 -30 -71 -46 -61 -6 3 -7 -1 -4 -10 4
-8 1 -21 -5 -29 -6 -7 -7 -16 -3 -21 4 -4 -4 -5 -18 -1 -14 3 -19 3 -12 0 17
-8 15 -24 -3 -24 -8 0 -15 -5 -15 -11 0 -14 -39 -2 -63 20 -17 15 -20 14 -33
-4 -7 -11 -18 -25 -23 -31 -5 -6 -11 -19 -13 -30 -2 -10 -11 -20 -21 -22 -16
-3 -17 -1 -5 20 7 12 21 33 32 45 10 12 15 26 12 32 -4 7 -1 8 8 5 10 -4 16
-1 16 9 0 8 7 20 16 28 13 11 14 9 8 -16 -5 -20 -4 -26 5 -21 14 9 14 41 0 68
-8 14 -8 23 0 31 8 8 11 4 11 -16 0 -26 19 -39 21 -14 1 6 2 18 3 25 0 7 8 17
16 22 8 5 11 12 7 17 -5 4 -12 1 -17 -7 -5 -8 -12 -12 -15 -9 -7 8 19 86 56
167 16 35 29 68 29 74 0 6 3 8 6 5 4 -4 1 -20 -6 -37z m110 -37 c0 -5 -4 -14
-9 -22 -7 -11 -11 -9 -20 8 -10 18 -9 21 9 21 11 0 20 -3 20 -7z m152 -100
c-3 -33 -2 -44 7 -39 6 4 11 1 11 -8 0 -9 -3 -16 -8 -16 -4 0 -13 -13 -20 -29
-9 -21 -18 -28 -29 -24 -11 4 -14 2 -9 -5 3 -6 -3 -16 -14 -22 -12 -6 -20 -7
-20 -1 0 5 6 11 13 14 7 2 0 10 -15 17 -30 14 -37 30 -14 30 20 0 66 50 59 66
-3 8 0 14 6 14 6 0 11 13 11 28 0 16 3 32 7 35 13 14 20 -15 15 -60z m-223 50
c-3 -21 2 -26 12 -13 8 11 12 12 16 2 2 -6 9 -10 14 -6 5 3 9 -1 9 -9 0 -15
-20 -18 -62 -11 -24 5 -26 8 -15 25 12 19 28 26 26 12z m101 -153 c11 -11 15
-20 9 -20 -8 0 -8 -5 1 -15 10 -12 10 -15 -4 -15 -9 0 -16 5 -16 10 0 6 -6 10
-14 10 -19 0 -25 21 -12 37 14 16 13 16 36 -7z m-16 -69 c8 -13 -4 -42 -14
-36 -5 3 -16 -5 -26 -17 -12 -18 -15 -19 -10 -4 5 14 2 17 -10 12 -11 -4 -14
-1 -12 11 2 10 12 19 22 21 13 3 16 0 11 -9 -5 -7 -4 -10 3 -5 6 4 9 13 5 21
-6 16 22 21 31 6z m-324 -19 c0 -10 -9 -24 -20 -32 -11 -8 -20 -22 -20 -30 0
-11 -10 -16 -35 -17 -19 -1 -35 2 -35 6 0 4 20 21 45 39 25 17 45 36 45 42 0
5 5 10 10 10 6 0 10 -8 10 -18z m415 -62 c0 -29 -4 -40 -15 -40 -22 0 -23 37
-2 60 9 10 17 19 17 19 1 1 1 -17 0 -39z m-170 0 c3 -5 -1 -10 -9 -10 -9 0
-16 5 -16 10 0 6 4 10 9 10 6 0 13 -4 16 -10z m-338 -36 c-3 -3 -12 -4 -19 -1
-8 3 -5 6 6 6 11 1 17 -2 13 -5z m190 0 c-3 -3 -12 -4 -19 -1 -8 3 -5 6 6 6
11 1 17 -2 13 -5z"/>
<path d="M4800 480 c0 -11 2 -20 4 -20 2 0 6 9 9 20 3 11 1 20 -4 20 -5 0 -9
-9 -9 -20z"/>
<path d="M4740 210 c0 -5 5 -10 10 -10 6 0 10 5 10 10 0 6 -4 10 -10 10 -5 0
-10 -4 -10 -10z"/>
<path d="M4625 109 c-4 -6 -5 -12 -2 -15 2 -3 7 2 10 11 7 17 1 20 -8 4z"/>
<path d="M1965 689 c-4 -6 -5 -12 -2 -15 2 -3 7 2 10 11 7 17 1 20 -8 4z"/>
<path d="M1937 620 c-9 -23 -22 -40 -31 -40 -10 0 -16 -9 -16 -25 0 -15 -7
-29 -17 -33 -10 -4 -19 -18 -20 -32 -5 -56 -16 -90 -30 -90 -26 0 -7 -25 21
-27 23 -2 26 0 16 13 -17 19 6 47 31 39 11 -4 26 0 34 9 20 19 19 23 -5 29
-27 7 -27 58 -1 81 11 10 17 24 14 31 -2 8 5 22 16 32 12 9 21 25 21 35 0 31
-16 20 -33 -22z"/>
<path d="M2018 593 c7 -3 16 -2 19 1 4 3 -2 6 -13 5 -11 0 -14 -3 -6 -6z"/>
<path d="M2391 544 c0 -11 3 -14 6 -6 3 7 2 16 -1 19 -3 4 -6 -2 -5 -13z"/>
<path d="M5484 372 c3 -5 22 -13 41 -16 20 -4 33 -11 30 -17 -4 -5 0 -9 9 -9
8 0 16 -3 18 -7 5 -13 78 -47 85 -40 8 8 11 5 -57 49 -52 34 -139 61 -126 40z"/>
<path d="M1799 343 c-1 -10 -1 -24 0 -31 1 -7 -5 -15 -14 -18 -8 -3 -15 -12
-15 -19 0 -7 15 1 33 18 32 32 38 67 11 67 -8 0 -15 -8 -15 -17z"/>
<path d="M760 320 c0 -5 5 -10 11 -10 5 0 7 5 4 10 -3 6 -8 10 -11 10 -2 0 -4
-4 -4 -10z"/>
<path d="M0 261 c0 -42 5 -62 18 -74 9 -8 30 -27 45 -41 15 -14 34 -26 41 -26
7 0 21 -10 32 -21 10 -12 29 -25 42 -30 12 -5 22 -15 22 -23 0 -8 8 -20 18
-25 15 -9 14 -10 -9 -11 -41 0 -126 48 -169 97 l-40 46 0 -77 0 -76 196 0 196
0 -32 40 c-18 23 -50 55 -73 73 -22 18 -53 44 -69 60 -16 15 -33 27 -38 27 -4
0 -10 7 -14 15 -3 8 -10 15 -16 15 -6 0 -32 15 -58 32 -26 18 -57 38 -69 45
-23 12 -23 11 -23 -46z"/>
<path d="M5680 275 c0 -8 9 -15 19 -15 11 0 21 -6 24 -12 2 -7 8 -10 12 -6 4
4 -3 16 -16 27 -29 24 -39 26 -39 6z"/>
<path d="M5745 230 c-3 -5 1 -10 10 -10 9 0 13 5 10 10 -3 6 -8 10 -10 10 -2
0 -7 -4 -10 -10z"/>
<path d="M2573 210 c-7 -10 -10 -27 -6 -36 5 -12 9 -9 19 16 16 37 17 40 6 40
-4 0 -13 -9 -19 -20z"/>
<path d="M2604 185 c-4 -11 -9 -23 -11 -27 -6 -11 9 -10 26 1 10 6 11 13 3 27
-10 18 -11 18 -18 -1z"/>
<path d="M5720 193 c1 -20 50 -61 81 -68 19 -4 43 -14 54 -21 23 -15 117 -45
123 -40 2 2 -18 11 -44 20 -26 9 -54 22 -63 30 -25 22 -151 88 -151 79z"/>
<path d="M5845 180 c-3 -5 1 -10 9 -10 9 0 15 -5 14 -12 -2 -6 14 -16 35 -23
21 -6 42 -17 46 -24 7 -10 10 -10 16 -1 9 14 -3 27 -29 32 -11 1 -31 13 -44
26 -27 24 -38 27 -47 12z"/>
<path d="M2608 133 c-9 -2 -19 -10 -21 -18 -7 -17 3 -55 13 -55 5 0 16 -7 24
-16 15 -14 17 -14 22 1 5 12 9 13 20 4 11 -9 14 -7 14 9 0 20 -23 46 -32 36
-3 -3 -9 0 -13 6 -3 6 -3 10 2 9 20 -3 23 2 9 16 -8 8 -16 14 -18 14 -2 -1
-10 -3 -20 -6z"/>
<path d="M5993 113 c-7 -3 -13 -8 -13 -12 0 -10 65 -43 79 -39 8 2 15 -2 18
-8 3 -10 -51 -38 -92 -47 -11 -3 28 -5 88 -6 l107 -1 0 61 0 61 -35 -31 c-38
-33 -50 -37 -60 -21 -3 6 -17 10 -30 10 -13 0 -30 8 -37 18 -7 11 -19 17 -25
15z"/>
<path d="M5675 80 c3 -5 8 -10 11 -10 2 0 4 5 4 10 0 6 -5 10 -11 10 -5 0 -7
-4 -4 -10z"/>
<path d="M820 71 c0 -5 9 -7 20 -4 11 3 20 7 20 9 0 2 -9 4 -20 4 -11 0 -20
-4 -20 -9z"/>
<path d="M5790 56 c0 -8 5 -18 10 -21 6 -3 10 1 10 9 0 8 -4 18 -10 21 -5 3
-10 -1 -10 -9z"/>
<path d="M852 44 c4 -21 22 -23 26 -1 2 10 -3 17 -13 17 -10 0 -15 -6 -13 -16z"/>
<path d="M700 34 c0 -8 5 -12 10 -9 6 3 10 10 10 16 0 5 -4 9 -10 9 -5 0 -10
-7 -10 -16z"/>
<path d="M5823 3 c9 -2 23 -2 30 0 6 3 -1 5 -18 5 -16 0 -22 -2 -12 -5z"/>
</g>
</svg>
